<svg id="Layer_1" data-name="Layer 1" xmlns="http://www.w3.org/2000/svg" viewBox="0 0 654.71 288.83"><defs><style>.cls-1,.cls-5{fill:#fff;}.cls-1{stroke:#f26522;stroke-width:6px;}.cls-1,.cls-3,.cls-4,.cls-5{stroke-miterlimit:10;}.cls-2,.cls-3,.cls-4{fill:none;}.cls-3,.cls-6,.cls-8{isolation:isolate;}.cls-3{font-size:44.69px;stroke:#000;font-family:ArialMT, Arial;}.cls-3,.cls-4,.cls-5{stroke-width:3px;}.cls-4,.cls-5{stroke:#eda820;}.cls-6{font-size:203.78px;}.cls-6,.cls-8{fill:#f26522;font-family:Verdana;}.cls-7{letter-spacing:-0.01em;}.cls-8{font-size:74px;}.cls-9{letter-spacing:-0.02em;}</style></defs><path class="cls-1" d="M101.6,294.8s12-39.9,3.2-56.2-28-32.4-29.6-68.3,34.3-78.2,39.9-78.2S163,70.6,200.4,78.5s53.4,11.2,63,23.9,23.1,47.1,23.1,53.4-5.6,23.9-5.6,23.9l23.9,32.7s3.2,4.8-13.6,16c-4,10,1.6,16,1.6,16s-4.8,8-11.2,8,7.2,7.2,4,9.6-7.2,8-7.2,8,11.2,14.4-.8,29.5c-22.3,6.4-48.6,0-48.6,0s-17.5,7.2-17.5,16.8-4,23.1-.8,41.5c-11.2,4-19.9,1.6-35.1-10.4s-43.1-36.7-43.1-36.7Z" transform="translate(-72.15 -73.76)"/><rect class="cls-2" x="66.85" y="50.54" width="84.9" height="55.6"/><text class="cls-3" transform="translate(66.88 82.27)">&lt;/&gt;</text><path class="cls-4" d="M138.3,243.2s-4.4-17.2,0-20.7,0-13.1,0-13.1-25.4-8.8-21.9-21c-7.9-10.5-17.5-14-5.3-21.9,0-14-5.9-14.9-5.9-14.9s3.2-19.3,12-14.9c5.5-22.8,6.7-17.4,16.2-21a56.25,56.25,0,0,1,4.1-4.4,109,109,0,0,1,9.5-8s9.6,0,14,8.8,0-8.8,0-8.8,9.6-6.1,15.8,0,4.6-6.2,4.6-6.2a13.77,13.77,0,0,1,12.9,7c4.4,7.9,15.8-5.3,28,11.4,13.1,7,4.4,0,13.1,7s16.6,7.9,14.9,15.8,12.3,15,5.3,34.2l-10.5,7.9s-11.1,8.8-17.4,7-5.4,17.5-18.5,16.6-23.5,8.8-27.1.9-5.4,7-5.4,7l-13.1-.9s0,17.5-9.6,24.5S147,250.7,138.3,243.2Z" transform="translate(-72.15 -73.76)"/><line class="cls-4" x1="74.05" y1="50.54" x2="65.35" y2="37.44"/><line class="cls-4" x1="45.05" y1="62.84" x2="54.75" y2="74.24"/><path class="cls-4" d="M111.1,166.4s7-7,11-4.4" transform="translate(-72.15 -73.76)"/><path class="cls-4" d="M116.3,188.3s30-11.1,43,6.1c0,7-21,14.9-21,14.9" transform="translate(-72.15 -73.76)"/><path class="cls-4" d="M176.8,212l-20.9-12.1,3.4-5.4s5.3-2.6,17.5,0c5.4,10.5,5.5-7,5.4,10.5" transform="translate(-72.15 -73.76)"/><path class="cls-5" d="M206.6,193.2s-3.5-5.9-13.1-8.5-23.7-4.3-29.8-12.2" transform="translate(-72.15 -73.76)"/><path class="cls-5" d="M223.9,189.7s-5.9,0-17.3-6.8-28.9-11.3-28.9-11.3-17.5-10.5-18.4-17.5" transform="translate(-72.15 -73.76)"/><path class="cls-5" d="M206.6,172.5l-10.8,5.1s5.8-1.9,0-16.2" transform="translate(-72.15 -73.76)"/><path class="cls-5" d="M222.4,115.5s.3,10.5,5.4,17.5a28,28,0,0,1,5.1,14.9" transform="translate(-72.15 -73.76)"/><path class="cls-5" d="M227.8,133.1s-10.2,0-12.2,9.2" transform="translate(-72.15 -73.76)"/><text class="cls-6" transform="translate(232.88 181.12) scale(0.5 1)">Creati<tspan class="cls-7" x="609.25" y="0">v</tspan><tspan x="728.06" y="0">e</tspan></text><text class="cls-8" transform="translate(237.62 245.21) scale(0.82 1)">Prog<tspan class="cls-9" x="167.22" y="0">r</tspan><tspan x="197.5" y="0">ammers</tspan></text></svg>